# xmcd CD database file
#
# Track frame offsets:
#	150
#	13993
#	28090
#	41036
#	56194
#	70512
#	81207
#	93280
#	107414
#	127228
#	143256
#	160582
#	179418
#	196252
#	215078
#	228501
#	247556
#	263896
#	278042
#	294133
#	321769
#
# Disc length: 4750 seconds
#
# Revision: 2
# Processed by: cddbd v1.5.1PL0 Copyright (c) Steve Scherf et al.
# Submitted via: CDex 1.51
#
DISCID=22128c15
DTITLE=Cánovas, Rodrigo, Adolfo, Guzman - Gran Reserva 30 Años  [CD-1)
DYEAR=2005
DGENRE=Pop
TTITLE0=Cánovas, Rodrigo, Adolfo, Guzmán - Carrusel
TTITLE1=Cánovas, Rodrigo, Adolfo, Guzmán - Sólo Pienso En Ti
TTITLE2=Cánovas, Rodrigo, Adolfo, Guzmán - El Río
TTITLE3=Cánovas, Rodrigo, Adolfo, Guzmán - Don Samuel Jazmín
TTITLE4=Cánovas, Rodrigo, Adolfo, Guzmán - Si Pudieras Ver
TTITLE5=Cánovas, Rodrigo, Adolfo, Guzmán - Nuestro Problema
TTITLE6=Cánovas, Rodrigo, Adolfo, Guzmán - Buscando Una Solución
TTITLE7=Cánovas, Rodrigo, Adolfo, Guzmán - Supremo Director
TTITLE8=Cánovas, Rodrigo, Adolfo, Guzmán - María Amaranta
TTITLE9=Cánovas, Rodrigo, Adolfo, Guzmán - El Vividor
TTITLE10=Cánovas, Rodrigo, Adolfo, Guzmán - Señora Azul
TTITLE11=Cánovas, Rodrigo, Adolfo, Guzmán - Fallará Mi Reloj
TTITLE12=Cánovas, Rodrigo, Adolfo, Guzmán - De Piel Trigueña
TTITLE13=Cánovas, Rodrigo, Adolfo, Guzmán - Estrella Perdida
TTITLE14=Cánovas, Rodrigo, Adolfo, Guzmán - Queridos Compañeros
TTITLE15=Cánovas, Rodrigo, Adolfo, Guzmán - Mi Cama De Bambú
TTITLE16=Cánovas, Rodrigo, Adolfo, Guzmán - Necesito Tenerte
TTITLE17=Cánovas, Rodrigo, Adolfo, Guzmán - Nada Que Ocultar
TTITLE18=Cánovas, Rodrigo, Adolfo, Guzmán - Igual Que Una Noria
TTITLE19=Rodrigo, Adolfo y Guzmán - Canción De La Primera Cita
TTITLE20=--DATOS---
EXTD=YEAR: 2005
EXTT0=
EXTT1=
EXTT2=
EXTT3=
EXTT4=
EXTT5=
EXTT6=
EXTT7=
EXTT8=
EXTT9=
EXTT10=
EXTT11=
EXTT12=
EXTT13=
EXTT14=
EXTT15=
EXTT16=
EXTT17=
EXTT18=
EXTT19=
EXTT20=
PLAYORDER=
